<svg width="120" height="120" viewBox="0 0 120 120" fill="none" xmlns="http://www.w3.org/2000/svg">
<g style="mix-blend-mode:multiply">
<path d="M11 31.575C17.754 25.3601 26.7686 21.5633 36.6709 21.5632C45.4685 21.5632 53.5663 24.5591 60 29.5857C66.4336 24.5593 74.5308 21.5632 83.3281 21.5632C93.231 21.5633 102.246 25.3605 109 31.5759L109 86.8474L11 86.8474L11 31.575Z" fill="#1CC7CD"/>
</g>
<g style="mix-blend-mode:multiply">
<path d="M11 86.7031C17.7543 80.4874 26.7693 76.69 36.6724 76.69C45.4699 76.69 53.5673 79.6858 60.001 84.7125C66.4344 79.6864 74.5307 76.6901 83.3276 76.69C93.2307 76.69 102.246 80.4874 109 86.7031L109 97L11 97L11 86.7031Z" fill="#1CC7CD"/>
</g>
</svg>
